<svg width="28" height="21" viewBox="0 0 28 21" fill="none" xmlns="http://www.w3.org/2000/svg">
<path d="M27.0667 0.0088265C26.9436 -0.00294217 26.8195 -0.00294217 26.6964 0.0088265H1.41192C1.24987 0.0111434 1.08889 0.03369 0.933319 0.075859L13.9819 12.1333L27.0667 0.0088265Z" fill="white"/>
<path d="M27.895 0.93335L15.155 13.503C14.8271 13.8259 14.3836 14.0072 13.9212 14.0072C13.4589 14.0072 13.0154 13.8259 12.6875 13.503L0.06125 1.02871C0.0224345 1.17004 0.00185385 1.31568 0 1.46214V18.7996C0 19.2594 0.184375 19.7004 0.512563 20.0255C0.840752 20.3507 1.28587 20.5334 1.75 20.5334H26.25C26.7141 20.5334 27.1592 20.3507 27.4874 20.0255C27.8156 19.7004 28 19.2594 28 18.7996V1.46214C27.993 1.28153 27.9576 1.10311 27.895 0.93335V0.93335ZM2.94875 18.7996H1.7325V17.56L8.09375 11.3098L9.3275 12.5321L2.94875 18.7996ZM26.2325 18.7996H25.0075L18.6287 12.5321L19.8625 11.3098L26.2237 17.56L26.2325 18.7996Z" fill="white"/>
</svg>
