<svg width="28" height="19" viewBox="0 0 28 19" fill="none" xmlns="http://www.w3.org/2000/svg">
<path d="M27.4137 2.9811C27.2552 2.4058 26.9464 1.88494 26.5202 1.47391C26.0819 1.05024 25.5447 0.74718 24.9594 0.593333C22.7687 0.0058849 13.9918 0.00588503 13.9918 0.00588503C10.3329 -0.0364674 6.67482 0.149809 3.03831 0.563664C2.45295 0.728877 1.91679 1.03871 1.47752 1.4656C1.04591 1.88809 0.733288 2.40908 0.569977 2.97991C0.177671 5.13003 -0.0129375 7.3132 0.00071995 9.49999C-0.0132782 11.6848 0.176863 13.8673 0.569977 16.0201C0.729789 16.5885 1.04125 17.1071 1.47402 17.5261C1.9068 17.945 2.44572 18.2476 3.03831 18.4078C5.25818 18.9941 13.9918 18.9941 13.9918 18.9941C17.6555 19.0365 21.3182 18.8502 24.9594 18.4363C25.5447 18.2825 26.0819 17.9794 26.5202 17.5557C26.9462 17.1448 27.2547 16.6239 27.4125 16.0486C27.8151 13.8993 28.0108 11.7152 27.997 9.52729C28.0272 7.33012 27.8318 5.13575 27.4137 2.97991V2.9811ZM11.2015 13.5635V5.4377L18.5039 9.50118L11.2015 13.5635Z" fill="white"/>
</svg>
